<svg xmlns="http://www.w3.org/2000/svg"  viewBox="0 0 100 100" width="100px" height="100px"><g id="Слой_1"><path fill="#f9dbd2" d="M50,12c-21,0-38,17-38,38s17,38,38,38s38-17,38-38S71,12,50,12z"/><path fill="#f1bc19" d="M78,13c-0.6,0-1,0.4-1,1s0.4,1,1,1s1-0.4,1-1S78.6,13,78,13z"/><path fill="#f1bc19" d="M84,12c-2.2,0-4,1.8-4,4s1.8,4,4,4s4-1.8,4-4S86.2,12,84,12z"/><path fill="#ee3e54" d="M18,20c-1.1,0-2,0.9-2,2s0.9,2,2,2s2-0.9,2-2S19.1,20,18,20z"/><path fill="#fbcd59" d="M85,77c-1.1,0-2,0.9-2,2s0.9,2,2,2s2-0.9,2-2S86.1,77,85,77z"/><path fill="#ee3e54" d="M26,82c-1.1,0-2,0.9-2,2s0.9,2,2,2s2-0.9,2-2S27.1,82,26,82z"/><path fill="#fff" d="M39,72c-0.6,0-1,0.4-1,1s0.4,1,1,1s1-0.4,1-1S39.6,72,39,72z"/><path fill="#fff" d="M61,19c-0.6,0-1,0.4-1,1s0.4,1,1,1s1-0.4,1-1S61.6,19,61,19z"/><path fill="#f1bc19" d="M93,24c-0.6,0-1,0.4-1,1s0.4,1,1,1s1-0.4,1-1S93.6,24,93,24z"/><circle cx="13.4" cy="75.9" r="4" fill="#fbcd59"/><circle cx="60.5" cy="77.5" r="2.5" fill="#fff"/></g><g id="Layer_1"><path fill="#fed5b3" d="M35,72.3c-4,0-7.3-3.3-7.3-7.3V35c0-4,3.3-7.3,7.3-7.3h30c4,0,7.3,3.3,7.3,7.3v30c0,4-3.3,7.3-7.3,7.3 H35z"/><path fill="#472b29" d="M65,27H35c-4.4,0-8,3.6-8,8v30c0,1.9,0.7,3.6,1.7,5c0.1,0.1,0.2,0.3,0.3,0.4c0.1,0.1,0.2,0.2,0.3,0.4 c0.8,0.7,1.7,1.3,2.7,1.7c0.2,0.1,0.4,0.1,0.6,0.2h0c0.2,0.1,0.4,0.1,0.6,0.2c0.6,0.1,1.1,0.2,1.7,0.2h30c4.4,0,8-3.6,8-8V35 C73,30.6,69.4,27,65,27z M71.6,65c0,3.6-3,6.6-6.6,6.6H35c-0.1,0-0.2,0-0.2,0c-0.2,0-0.5,0-0.7-0.1c-0.2,0-0.4-0.1-0.6-0.1 c-1.1-0.3-2.1-0.8-2.9-1.5c-0.1-0.1-0.2-0.2-0.4-0.4c-0.1-0.1-0.2-0.2-0.3-0.4C29,68,28.4,66.6,28.4,65V35c0-3.6,3-6.6,6.6-6.6 h30c3.6,0,6.6,3,6.6,6.6V65z"/><path fill="#472b29" d="M68.5,47.4c-0.3,0-0.5-0.2-0.5-0.5V43c0-0.3,0.2-0.5,0.5-0.5S69,42.7,69,43v3.9 C69,47.2,68.8,47.4,68.5,47.4z"/><path fill="#472b29" d="M68.5,40.5c-0.3,0-0.5-0.2-0.5-0.5v-2c0-0.3,0.2-0.5,0.5-0.5S69,37.7,69,38v2 C69,40.3,68.8,40.5,68.5,40.5z"/><path fill="#472b29" d="M64,69H36c-2.8,0-5-2.2-5-5V36c0-2.8,2.2-5,5-5h25.4c0.3,0,0.5,0.2,0.5,0.5S61.7,32,61.4,32H36 c-2.2,0-4,1.8-4,4v28c0,2.2,1.8,4,4,4h28c2.2,0,4-1.8,4-4V49.6c0-0.3,0.2-0.5,0.5-0.5s0.5,0.2,0.5,0.5V64 C69,66.8,66.8,69,64,69z"/><path fill="#b77748" d="M55,36l0,2.1c-1.4-1.3-3.2-2.1-5.1-2.1c-4.6,0-8.4,4.4-8.4,9.8s3.8,9.8,8.4,9.8c1.9,0,3.7-0.8,5.1-2l0,3.8 c0,1.8-2.1,3.3-4.5,3.3c-2.4,0-4.5-1.5-4.5-3.3h-3.4c0,3.7,3.5,6.6,7.9,6.6c4.3,0,7.8-3,7.9-6.6L58.3,36L55,36z M49.8,52.2 c-2.8,0-5-2.9-5-6.4c0-3.6,2.3-6.4,5-6.4c2.8,0,5,2.9,5,6.4C54.9,49.4,52.6,52.2,49.8,52.2z"/><path fill="#472b29" d="M50.4,64.5c-4.6,0-8.4-3.2-8.4-7.1c0-0.3,0.2-0.5,0.5-0.5h3.4c0.3,0,0.5,0.2,0.5,0.5c0,1.5,1.9,2.8,4,2.8 c2.1,0,4-1.3,4-2.8l0-2.7c-1.4,1-2.9,1.5-4.6,1.5c-4.9,0-8.9-4.6-8.9-10.3c0-5.7,4-10.3,8.9-10.3c1.7,0,3.3,0.5,4.7,1.5l0-1 c0-0.1,0.1-0.3,0.1-0.4c0.1-0.1,0.2-0.1,0.4-0.1c0,0,0,0,0,0l3.4,0c0.1,0,0.3,0.1,0.4,0.1c0.1,0.1,0.1,0.2,0.1,0.4l-0.1,21.4 C58.7,61.3,55,64.5,50.4,64.5z M43.1,57.9c0.3,3.2,3.5,5.6,7.3,5.6c4,0,7.3-2.7,7.4-6.1l0.1-20.9l-2.4,0l0,1.6 c0,0.2-0.1,0.4-0.3,0.5c-0.2,0.1-0.4,0-0.5-0.1c-1.4-1.3-3.1-1.9-4.8-1.9c-4.4,0-7.9,4.2-7.9,9.3c0,5.1,3.5,9.3,7.9,9.3 c1.7,0,3.4-0.7,4.8-1.9c0.1-0.1,0.4-0.2,0.5-0.1c0.2,0.1,0.3,0.3,0.3,0.5l0,3.8c0,2-2.3,3.8-5,3.8c-2.5,0-4.6-1.5-4.9-3.3H43.1z M49.8,52.7c-3.1,0-5.5-3.1-5.5-6.9s2.5-6.9,5.5-6.9s5.5,3.1,5.5,6.9S52.9,52.7,49.8,52.7z M49.8,39.9c-2.5,0-4.5,2.7-4.5,5.9 s2,5.9,4.5,5.9c2.5,0,4.5-2.7,4.5-5.9S52.3,39.9,49.8,39.9z"/></g></svg>